<?xml version="1.0" encoding="UTF-8" standalone="no"?>
<svg
   xmlns:dc="http://purl.org/dc/elements/1.1/"
   xmlns:cc="http://creativecommons.org/ns#"
   xmlns:rdf="http://www.w3.org/1999/02/22-rdf-syntax-ns#"
   xmlns:svg="http://www.w3.org/2000/svg"
   xmlns="http://www.w3.org/2000/svg"
   height="53.374668"
   width="53.374668"
   version="1.1"
   id="Capa_1"
   x="0px"
   y="0px"
   viewBox="0 0 53.374668 53.374668"
   xml:space="preserve">
  
  <metadata
   id="metadata39">
    <rdf:RDF>
      <cc:Work
   rdf:about="">
        <dc:format>image/svg+xml</dc:format>
        <dc:type
   rdf:resource="http://purl.org/dc/dcmitype/StillImage" />
        <dc:title></dc:title>
      </cc:Work>
    </rdf:RDF>
  </metadata>
  <defs
   id="defs37" />
  <circle
   style="opacity:1;fill:#ffffff;fill-opacity:1;stroke:#ffffff;stroke-width:1;stroke-linecap:butt;stroke-linejoin:miter;stroke-miterlimit:4;stroke-dasharray:none;stroke-dashoffset:0;stroke-opacity:1"
   id="path8082"
   cx="26.917635"
   cy="18.784504"
   r="7.7118645" />
  <path
   style="fill:__MAPGEN__ICON_FILL_COLOR__;stroke:#ffffff;stroke-opacity:1"
   d="m 39.540641,5.8200735 0,0 c -7.098078,-7.0980436 -18.607204,-7.0980436 -25.706282,0 l 0,0 C 7.438289,12.216113 6.7182811,24.259187 12.146341,31.496232 L 26.6875,52.49636 41.228659,31.496232 C 46.656719,24.259187 45.936711,12.216113 39.540641,5.8200735 Z M 26.864502,24.496189 c -3.314037,0 -6.000066,-2.686017 -6.000066,-6.000037 0,-3.314021 2.686029,-6.000037 6.000066,-6.000037 3.314036,0 6.000066,2.686016 6.000066,6.000037 0,3.31402 -2.68603,6.000037 -6.000066,6.000037 z"
   id="path3" />
  <g
   style="stroke:#ffffff;stroke-opacity:1"
   transform="translate(-7.3027037,0.49636751)"
   id="g5" />
  <g
   style="stroke:#ffffff;stroke-opacity:1"
   transform="translate(-7.3027037,0.49636751)"
   id="g7" />
  <g
   style="stroke:#ffffff;stroke-opacity:1"
   transform="translate(-7.3027037,0.49636751)"
   id="g9" />
  <g
   style="stroke:#ffffff;stroke-opacity:1"
   transform="translate(-7.3027037,0.49636751)"
   id="g11" />
  <g
   style="stroke:#ffffff;stroke-opacity:1"
   transform="translate(-7.3027037,0.49636751)"
   id="g13" />
  <g
   style="stroke:#ffffff;stroke-opacity:1"
   transform="translate(-7.3027037,0.49636751)"
   id="g15" />
  <g
   style="stroke:#ffffff;stroke-opacity:1"
   transform="translate(-7.3027037,0.49636751)"
   id="g17" />
  <g
   style="stroke:#ffffff;stroke-opacity:1"
   transform="translate(-7.3027037,0.49636751)"
   id="g19" />
  <g
   style="stroke:#ffffff;stroke-opacity:1"
   transform="translate(-7.3027037,0.49636751)"
   id="g21" />
  <g
   style="stroke:#ffffff;stroke-opacity:1"
   transform="translate(-7.3027037,0.49636751)"
   id="g23" />
  <g
   style="stroke:#ffffff;stroke-opacity:1"
   transform="translate(-7.3027037,0.49636751)"
   id="g25" />
  <g
   style="stroke:#ffffff;stroke-opacity:1"
   transform="translate(-7.3027037,0.49636751)"
   id="g27" />
  <g
   style="stroke:#ffffff;stroke-opacity:1"
   transform="translate(-7.3027037,0.49636751)"
   id="g29" />
  <g
   style="stroke:#ffffff;stroke-opacity:1"
   transform="translate(-7.3027037,0.49636751)"
   id="g31" />
  <g
   style="stroke:#ffffff;stroke-opacity:1"
   transform="translate(-7.3027037,0.49636751)"
   id="g33" />
</svg>